{"title":"How.to.Train.your.Dragon.2.2014.DVDRip.Xvid.CrEwSaDe","uid":11427200,"size":1409975188,"categoryP":"video","categoryS":"movies","magnet":"?xt=urn:btih:dfd4dfb73044fe179f09f70bdc6eca9395731402&amp;dn=How.to.Train.your.Dragon.2.2014.DVDRip.Xvid.CrEwSaDe&amp;tr=udp%3A%2F%2Ftracker.openbittorrent.com%3A80&amp;tr=udp%3A%2F%2Fopen.demonii.com%3A1337&amp;tr=udp%3A%2F%2Ftracker.coppersurfer.tk%3A6969&amp;tr=udp%3A%2F%2Fexodus.desync.com%3A6969","seeders":2,"leechers":0,"uploader":"TvTeam","files":4,"time":1415677482,"description":" &lt;a href=&quot;http://www.torrenting.com&quot; rel=&quot;nofollow&quot; target=&quot;_NEW&quot;&gt;http://www.torrenting.com&lt;/a&gt;\n\nSign up is OPEN - for time being. Come and have fun.\n\n------------------------------------------------------------------\n                                 [color=yellow]Release Brought to you by CrEwSaDe[/color]\n                              \n\n[color=red]Poster[/color]\n\n[IMG]http://i.imgur.com/B0DH4IP.jpg[/IMG]\n\n[color=blue]\n******************************************************************************************************           \n\n                     **[/color] [color=yellow]How.to.Train.your.Dragon.2.2014.DVDRip.Xvid.CrEwSaDe[/color] [color=blue]**\n\n******************************************************************************************************[/color]\n\n\n\n[IMG]http://i.imgur.com/mSjwXjs.gif[/IMG]\n\n                                                  \nVideo Codec.......: isom\nVideo Bitrate.....: 1 123 kbs                          \nAudio Codec.......: ac-3                         \nAudio Bitrate.....: 384 kbs                         \nResolution........: 720 pixels x 400 pixels\nRuntime...........: 1h 37mn                        \nRelease Date......: 11/11/2014\nTheatre Date......: 10/07/2014 (UK)\nLanguage..........: English/French Duel Audio\nSubtitles.........: Nope\nIMDB Rating.......: 8.1\nIMDb URL..........: http://www.imdb.com/title/tt1646971\nGENRE.............: Animation | Action | Adventure\n\n\n[color=blue]_______________________________________________________________________________[/color]\n\n\n[IMG]http://i.imgur.com/9Z7M0r7.gif[/IMG]\n\nComplete name                            : C:UsersAdminDesktopHow.to.Train.your.Dragon.2.2014.DVDRip.Xvid.CrEwSaDeHow.to.Train.your.Dragon.2.2014.DVDRip.Xvid.CrEwSaDe.mp4\nFormat                                   : MPEG-4\nFormat profile                           : Base Media\nCodec ID                                 : isom\nFile size                                : 1.29 GiB\nDuration                                 : 1h 37mn\nOverall bit rate mode                    : Variable\nOverall bit rate                         : 1 895 Kbps\nEncoded date                             : UTC 2014-11-11 00:17:55\nTagged date                              : UTC 2014-11-11 00:17:55\n\n\n\n[color=blue]________________________________________________________________________________[/color]\n\n\n[IMG]http://i.imgur.com/tDE5iOF.gif[/IMG]\n\nID                                       : 1\nFormat                                   : MPEG-4 Visual\nFormat profile                           : Advanced Simple@L5\nFormat settings, BVOP                    : Yes\nFormat settings, QPel                    : Yes\nFormat settings, GMC                     : No warppoints\nFormat settings, Matrix                  : Default (H.263)\nCodec ID                                 : 20\nDuration                                 : 1h 37mn\nBit rate mode                            : Variable\nBit rate                                 : 1 123 Kbps\nMaximum bit rate                         : 5 914 Kbps\nWidth                                    : 720 pixels\nHeight                                   : 400 pixels\nDisplay aspect ratio                     : 16:9\nFrame rate mode                          : Constant\nFrame rate                               : 25.000 fps\nColor space                              : YUV\nChroma subsampling                       : 4:2:0\nBit depth                                : 8 bits\nScan type                                : Progressive\nCompression mode                         : Lossy\nBits/(Pixel*Frame)                       : 0.156\nStream size                              : 785 MiB (59%)\nWriting library                          : XviD 1.2.1 (UTC 2008-12-04)\nEncoded date                             : UTC 2014-11-11 00:17:55\nTagged date                              : UTC 2014-11-11 00:19:03\n\n\n\n[color=blue]_________________________________________________________________________________[/color]\n\n\n[IMG]http://i.imgur.com/UReNJEI.gif[/IMG]\n\nID                                       : 2\nFormat                                   : AC-3\nFormat/Info                              : Audio Coding 3\nMode extension                           : CM (complete main)\nFormat settings, Endianness              : Big\nCodec ID                                 : ac-3\nDuration                                 : 1h 37mn\nBit rate mode                            : Constant\nBit rate                                 : 384 Kbps\nChannel(s)                               : 6 channels\nChannel positions                        : Front: L C R, Side: L R, LFE\nSampling rate                            : 44.1 KHz\nBit depth                                : 16 bits\nCompression mode                         : Lossy\nStream size                              : 268 MiB (20%)\nEncoded date                             : UTC 2014-11-11 00:18:13\nTagged date                              : UTC 2014-11-11 00:19:03\n\nAudio #2\nID                                       : 3\nFormat                                   : AC-3\nFormat/Info                              : Audio Coding 3\nMode extension                           : CM (complete main)\nFormat settings, Endianness              : Big\nCodec ID                                 : ac-3\nDuration                                 : 1h 37mn\nBit rate mode                            : Constant\nBit rate                                 : 384 Kbps\nChannel(s)                               : 6 channels\nChannel positions                        : Front: L C R, Side: L R, LFE\nSampling rate                            : 44.1 KHz\nBit depth                                : 16 bits\nCompression mode                         : Lossy\nStream size                              : 268 MiB (20%)\nEncoded date                             : UTC 2014-11-11 00:18:45\nTagged date                              : UTC 2014-11-11 00:19:03\n              \n\n[color=blue]_________________________________________________________________________________[/color]\n\n\n\n[IMG]http://i.imgur.com/GwKJhbW.gif[/IMG]\n\n\n[color=green]VIDEO: How.To.Train.Your.Dragon.2.2014.PAL.MULTI.DVDR-VIAZAC Thanks[/color] \n[color=green]AUDIO: How.To.Train.Your.Dragon.2.2014.PAL.MULTI.DVDR-VIAZAC Thanks[/color] \n\n\n[color=blue]_________________________________________________________________________________[/color]\n\n\n[IMG]http://i.imgur.com/kFUXqwj.gif[/IMG]\n\n\nWhen Hiccup and Toothless discover an ice cave that is home to hundreds of new wild dragons and the mysterious Dragon Rider, the two friends find themselves at the center of a battle to protect the peace.\n\n\n[color=blue]_________________________________________________________________________________[/color]\n\n\n[IMG]http://i.imgur.com/1Wjvkx5.gif[/IMG]\n\nJay Baruchel\t...\tHiccup (voice)\nCate Blanchett\t...\tValka (voice)\nGerard Butler\t...\tStoick (voice)\nCraig Ferguson\t...\tGobber (voice)\nAmerica Ferrera\t...\tAstrid (voice)\nJonah Hill\t...\tSnotlout (voice)\nChristopher Mintz-Plasse\t...\tFishlegs (voice)\nT.J. Miller\t...\tTuffnut (voice)\nKristen Wiig\t...\tRuffnut (voice)\nDjimon Hounsou\t...\tDrago (voice)\nKit Harington\t...\tEret (voice)\n  \n\n\n[color=blue]_________________________________________________________________________________[/color] \n\n\n[IMG]http://i.imgur.com/O0UeWPU.gif[/IMG]\n\n[IMG]http://i.imgur.com/2WEOj3L.png[/IMG]\n[IMG]http://i.imgur.com/Tzs3sHp.png[/IMG]\n[IMG]http://i.imgur.com/Jv25rbU.png[/IMG]\n[IMG]http://i.imgur.com/Qm39yMJ.png[/IMG]\n[IMG]http://i.imgur.com/EirjQVQ.png[/IMG]\n\n\n\n[color=blue]_________________________________________________________________________________[/color]\n\n\n[IMG]http://i.imgur.com/yS1r7oo.gif[/IMG]\n\n\n\n[color=blue]_________________________________________________________________________________[/color]\n\n\n\n[IMG]http://i.imgur.com/9YwlQZv.gif[/IMG]\n\nYes\n\n[color=blue]_________________________________________________________________________________[/color]\n\n\n\n[IMG]http://i.imgur.com/JxDWlgB.gif[/IMG]\n\nNothing Here Move Along.......:-)\n\n[color=blue]_________________________________________________________________________________[/color]\n\n\n\n[IMG]http://i.imgur.com/GETzsUr.gif[/IMG]\n\nAll our home site staff for getting us such great sources :-) also our friends\n\nLEGiON,JTR,SAFC,jamie111, CrEwSaDe members Past and present, all other p2pgroups past and present, That made all this possible and the present ones that continue to work so hard at what we do \n\n\n[color=blue]__________________________________________________________________________________[/color]\n\n\nWE DONT RELEASE EVERYTHiNG TO OTHERS SiTES YOU WANT MORE OF OUR STUFF COME FiND US AT .......\n\nCrEwSaDe are currently Looking for unreleased DVD's,Screeners,New Music Releases,R5's,Audio,Cams,\nSilvers,syncers,cammers and Any Other Good Sources You May Have To Offer\nContact us @ &lt;a class=&quot;__cf_email__&quot; href=&quot;/cdn-cgi/l/email-protection&quot; data-cfemail=&quot;064574437155674263466e73756e6b676f6a2865696b&quot;&gt;[email&amp;#160;protected]&lt;/a&gt;&lt;script cf-hash='f9e31' type=&quot;text/javascript&quot;&gt;\n/* &lt;![CDATA[ */!function(){try{var t=&quot;currentScript&quot;in document?document.currentScript:function(){for(var t=document.getElementsByTagName(&quot;script&quot;),e=t.length;e--;)if(t[e].getAttribute(&quot;cf-hash&quot;))return t[e]}();if(t&amp;&amp;t.previousSibling){var e,r,n,i,c=t.previousSibling,a=c.getAttribute(&quot;data-cfemail&quot;);if(a){for(e=&quot;&quot;,r=parseInt(a.substr(0,2),16),n=2;a.length-n;n+=2)i=parseInt(a.substr(n,2),16)^r,e+=String.fromCharCode(i);e=document.createTextNode(e),c.parentNode.replaceChild(e,c)}}}catch(u){}}();/* ]]&gt; */&lt;/script&gt;\n\n\n\n[IMG]http://i1179.photobucket.com/albums/x394/crewsade/crew1.png[/IMG]","torrent":{"xt":"urn:btih:dfd4dfb73044fe179f09f70bdc6eca9395731402","amp;dn":"How.to.Train.your.Dragon.2.2014.DVDRip.Xvid.CrEwSaDe","amp;tr":["udp%3A%2F%2Ftracker.openbittorrent.com%3A80","udp%3A%2F%2Fopen.demonii.com%3A1337","udp%3A%2F%2Ftracker.coppersurfer.tk%3A6969","udp%3A%2F%2Fexodus.desync.com%3A6969"],"infoHash":"dfd4dfb73044fe179f09f70bdc6eca9395731402","infoHashBuffer":{"type":"Buffer","data":[223,212,223,183,48,68,254,23,159,9,247,11,220,110,202,147,149,115,20,2]},"announce":[],"urlList":[]}}